<svg width="1200" height="600" viewBox="0 0 1200 600" fill="none" xmlns="http://www.w3.org/2000/svg">
  <defs>
    <linearGradient id="gradient1" x1="0%" y1="0%" x2="100%" y2="100%">
      <stop offset="0%" style="stop-color:#2563eb;stop-opacity:0.1" />
      <stop offset="100%" style="stop-color:#3b82f6;stop-opacity:0.05" />
    </linearGradient>
    <linearGradient id="gradient2" x1="0%" y1="0%" x2="100%" y2="0%">
      <stop offset="0%" style="stop-color:#f59e0b;stop-opacity:0.1" />
      <stop offset="100%" style="stop-color:#2563eb;stop-opacity:0.1" />
    </linearGradient>
    <pattern id="dots" x="0" y="0" width="40" height="40" patternUnits="userSpaceOnUse">
      <circle cx="20" cy="20" r="1" fill="#2563eb" opacity="0.3"/>
    </pattern>
  </defs>
  
  <!-- Background -->
  <rect width="1200" height="600" fill="url(#gradient1)"/>
  
  <!-- Dot pattern overlay -->
  <rect width="1200" height="600" fill="url(#dots)"/>
  
  <!-- Floating geometric shapes -->
  <g opacity="0.4">
    <!-- Large circle -->
    <circle cx="200" cy="150" r="80" fill="none" stroke="#2563eb" stroke-width="2" opacity="0.3">
      <animateTransform
        attributeName="transform"
        type="rotate"
        values="0 200 150;360 200 150"
        dur="20s"
        repeatCount="indefinite"/>
    </circle>
    
    <!-- Medium circle -->
    <circle cx="900" cy="400" r="60" fill="none" stroke="#f59e0b" stroke-width="2" opacity="0.4">
      <animateTransform
        attributeName="transform"
        type="rotate"
        values="360 900 400;0 900 400"
        dur="15s"
        repeatCount="indefinite"/>
    </circle>
    
    <!-- Small circles -->
    <circle cx="100" cy="450" r="20" fill="#2563eb" opacity="0.2">
      <animate attributeName="cy" values="450;430;450" dur="3s" repeatCount="indefinite"/>
    </circle>
    <circle cx="1050" cy="100" r="15" fill="#f59e0b" opacity="0.3">
      <animate attributeName="cy" values="100;120;100" dur="4s" repeatCount="indefinite"/>
    </circle>
    
    <!-- Hexagon -->
    <polygon points="600,80 640,100 640,140 600,160 560,140 560,100" 
             fill="none" stroke="#2563eb" stroke-width="2" opacity="0.3">
      <animateTransform
        attributeName="transform"
        type="rotate"
        values="0 600 120;360 600 120"
        dur="25s"
        repeatCount="indefinite"/>
    </polygon>
    
    <!-- Triangle -->
    <polygon points="400,500 440,450 480,500" 
             fill="none" stroke="#f59e0b" stroke-width="2" opacity="0.4">
      <animate attributeName="opacity" values="0.4;0.8;0.4" dur="2s" repeatCount="indefinite"/>
    </polygon>
    
    <!-- Rectangle -->
    <rect x="750" y="200" width="40" height="40" 
          fill="none" stroke="#2563eb" stroke-width="2" opacity="0.3" rx="5">
      <animateTransform
        attributeName="transform"
        type="rotate"
        values="0 770 220;45 770 220;0 770 220"
        dur="6s"
        repeatCount="indefinite"/>
    </rect>
  </g>
  
  <!-- Data visualization elements -->
  <g opacity="0.5">
    <!-- Chart bars -->
    <rect x="50" y="300" width="8" height="60" fill="#2563eb" opacity="0.4">
      <animate attributeName="height" values="60;80;60" dur="2s" repeatCount="indefinite"/>
    </rect>
    <rect x="65" y="280" width="8" height="80" fill="#2563eb" opacity="0.4">
      <animate attributeName="height" values="80;100;80" dur="2.5s" repeatCount="indefinite"/>
    </rect>
    <rect x="80" y="290" width="8" height="70" fill="#2563eb" opacity="0.4">
      <animate attributeName="height" values="70;90;70" dur="3s" repeatCount="indefinite"/>
    </rect>
    <rect x="95" y="275" width="8" height="85" fill="#2563eb" opacity="0.4">
      <animate attributeName="height" values="85;105;85" dur="2.2s" repeatCount="indefinite"/>
    </rect>
    
    <!-- Line chart -->
    <polyline points="950,350 970,320 990,340 1010,300 1030,330 1050,290" 
              fill="none" stroke="#f59e0b" stroke-width="2" opacity="0.5">
      <animate attributeName="opacity" values="0.5;0.8;0.5" dur="3s" repeatCount="indefinite"/>
    </polyline>
    
    <!-- Data points -->
    <circle cx="950" cy="350" r="3" fill="#f59e0b" opacity="0.6"/>
    <circle cx="970" cy="320" r="3" fill="#f59e0b" opacity="0.6"/>
    <circle cx="990" cy="340" r="3" fill="#f59e0b" opacity="0.6"/>
    <circle cx="1010" cy="300" r="3" fill="#f59e0b" opacity="0.6"/>
    <circle cx="1030" cy="330" r="3" fill="#f59e0b" opacity="0.6"/>
    <circle cx="1050" cy="290" r="3" fill="#f59e0b" opacity="0.6"/>
  </g>
  
  <!-- Flowing lines -->
  <g opacity="0.3">
    <path d="M0,200 Q300,150 600,200 T1200,180" 
          fill="none" stroke="url(#gradient2)" stroke-width="2">
      <animate attributeName="d" 
               values="M0,200 Q300,150 600,200 T1200,180;M0,180 Q300,220 600,160 T1200,200;M0,200 Q300,150 600,200 T1200,180" 
               dur="8s" repeatCount="indefinite"/>
    </path>
    
    <path d="M0,400 Q400,350 800,400 T1200,380" 
          fill="none" stroke="url(#gradient2)" stroke-width="1">
      <animate attributeName="d" 
               values="M0,400 Q400,350 800,400 T1200,380;M0,380 Q400,420 800,360 T1200,400;M0,400 Q400,350 800,400 T1200,380" 
               dur="10s" repeatCount="indefinite"/>
    </path>
  </g>
  
  <!-- Particle system -->
  <g opacity="0.6">
    <circle cx="300" cy="250" r="2" fill="#2563eb">
      <animateMotion dur="12s" repeatCount="indefinite">
        <path d="M300,250 Q500,200 700,250 Q900,300 1100,250"/>
      </animateMotion>
      <animate attributeName="opacity" values="0.6;1;0.6" dur="3s" repeatCount="indefinite"/>
    </circle>
    
    <circle cx="150" cy="350" r="1.5" fill="#f59e0b">
      <animateMotion dur="15s" repeatCount="indefinite">
        <path d="M150,350 Q400,300 650,350 Q900,400 1150,350"/>
      </animateMotion>
      <animate attributeName="opacity" values="0.4;0.8;0.4" dur="4s" repeatCount="indefinite"/>
    </circle>
    
    <circle cx="450" cy="450" r="2.5" fill="#2563eb">
      <animateMotion dur="18s" repeatCount="indefinite">
        <path d="M450,450 Q600,400 750,450 Q900,500 1050,450"/>
      </animateMotion>
      <animate attributeName="opacity" values="0.5;0.9;0.5" dur="2.5s" repeatCount="indefinite"/>
    </circle>
  </g>
  
  <!-- Grid overlay -->
  <g opacity="0.1">
    <defs>
      <pattern id="grid" width="50" height="50" patternUnits="userSpaceOnUse">
        <path d="M 50 0 L 0 0 0 50" fill="none" stroke="#2563eb" stroke-width="1"/>
      </pattern>
    </defs>
    <rect width="100%" height="100%" fill="url(#grid)" />
  </g>
</svg>
